<?xml version="1.0" encoding="utf-8"?>
<!-- Generator: Adobe Illustrator 17.0.0, SVG Export Plug-In . SVG Version: 6.00 Build 0)  -->
<!DOCTYPE svg PUBLIC "-//W3C//DTD SVG 1.1//EN" "http://www.w3.org/Graphics/SVG/1.1/DTD/svg11.dtd">
<svg version="1.1" id="Layer_1" xmlns="http://www.w3.org/2000/svg" xmlns:xlink="http://www.w3.org/1999/xlink" x="0px" y="0px"
	 width="400px" height="400px" viewBox="0 0 400 400" enable-background="new 0 0 400 400" xml:space="preserve">
<linearGradient id="SVGID_1_" gradientUnits="userSpaceOnUse" x1="350.9456" y1="115.0949" x2="51.8978" y2="287.7502">
	<stop  offset="0.0049" style="stop-color:#0A8040"/>
	<stop  offset="1" style="stop-color:#0CA950"/>
</linearGradient>
<circle fill="url(#SVGID_1_)" cx="201.422" cy="201.423" r="172.627"/>
<linearGradient id="SVGID_2_" gradientUnits="userSpaceOnUse" x1="372.5617" y1="101.617" x2="30.2817" y2="299.2325">
	<stop  offset="0.0049" style="stop-color:#0A8040"/>
	<stop  offset="1" style="stop-color:#0CA950"/>
</linearGradient>
<circle fill="none" stroke="url(#SVGID_2_)" stroke-width="10" cx="201.422" cy="200.425" r="192.583"/>
<circle fill="none" cx="201.422" cy="201.423" r="185.931"/>
<ellipse fill="#F4F4F4" cx="142.549" cy="169.492" rx="25.944" ry="36.92"/>
<ellipse fill="#F4F4F4" cx="261.642" cy="169.492" rx="25.944" ry="36.92"/>
<path fill="#F4F4F4" d="M266.246,264.287c0,0-16.464,33.927-53.384,35.922c0,0-50.89,9.978-75.836-35.922
	c0,0-4.49-8.482,10.976-6.486c0,0,53.883,16.355,111.259-0.304C259.261,257.497,267.743,252.312,266.246,264.287z"/>
</svg>
